<svg width="3637" height="1738" xmlns="http://www.w3.org/2000/svg" xmlns:xlink="http://www.w3.org/1999/xlink" overflow="hidden"><defs><clipPath id="clip0"><rect x="285" y="249" width="3637" height="1738"/></clipPath><clipPath id="clip1"><rect x="2328" y="288" width="208" height="213"/></clipPath><clipPath id="clip2"><rect x="2328" y="288" width="208" height="213"/></clipPath><clipPath id="clip3"><rect x="2328" y="288" width="208" height="213"/></clipPath><clipPath id="clip4"><rect x="1204" y="288" width="209" height="211"/></clipPath><clipPath id="clip5"><rect x="1204" y="288" width="209" height="211"/></clipPath><clipPath id="clip6"><rect x="1204" y="288" width="209" height="211"/></clipPath><clipPath id="clip7"><rect x="3217" y="1716" width="243" height="248"/></clipPath><clipPath id="clip8"><rect x="3217" y="1716" width="243" height="248"/></clipPath><clipPath id="clip9"><rect x="3217" y="1716" width="243" height="248"/></clipPath><clipPath id="clip10"><rect x="682" y="793" width="337" height="337"/></clipPath><clipPath id="clip11"><rect x="682" y="793" width="337" height="337"/></clipPath><clipPath id="clip12"><rect x="682" y="793" width="337" height="337"/></clipPath><linearGradient x1="850.5" y1="1089.37" x2="850.5" y2="901.402" gradientUnits="userSpaceOnUse" spreadMethod="pad" id="fill13"><stop offset="0" stop-color="#B3B3B3"/><stop offset="0.26" stop-color="#C1C1C1"/><stop offset="1" stop-color="#E6E6E6"/></linearGradient></defs><g clip-path="url(#clip0)" transform="translate(-285 -249)"><rect x="1176.5" y="251.5" width="719" height="287" stroke="#2F528F" stroke-width="4.58333" stroke-miterlimit="8" fill="#4472C4"/><text fill="#FFFFFF" font-family="Calibri,Calibri_MSFontService,sans-serif" font-weight="400" font-size="83" transform="matrix(1 0 0 1 1757.13 373)">IoT<tspan font-size="83" x="-34.375" y="99">Hub</tspan></text><rect x="2249.5" y="251.5" width="641" height="287" stroke="#2F528F" stroke-width="4.58333" stroke-miterlimit="8" fill="#4472C4"/><text fill="#FFFFFF" font-family="Calibri,Calibri_MSFontService,sans-serif" font-weight="400" font-size="83" transform="matrix(1 0 0 1 2670.67 373)">Event<tspan font-size="83" x="47.5061" y="99">Hub</tspan></text><rect x="598.5" y="682.5" width="2414" height="466" stroke="#507E32" stroke-width="4.58333" stroke-miterlimit="8" fill="#70AD47"/><text fill="#FFFFFF" font-family="Calibri,Calibri_MSFontService,sans-serif" font-weight="400" font-size="83" transform="matrix(1 0 0 1 630.847 775)">Storage Account</text><path d="M1895.5 385.188 2198.04 385.188 2198.04 405.813 1895.5 405.813ZM2187.73 364.563 2249.6 395.501 2187.73 426.438Z"/><path d="M2579.81 538.5 2579.81 809.213 2559.19 809.213 2559.19 538.5ZM2600.44 798.9 2569.5 860.775 2538.56 798.9Z"/><path d="M10.3113-0.15818 14.4642 270.56-6.15832 270.877-10.3113 0.15818ZM34.9286 259.933 4.94386 322.275-26.9391 260.882Z" transform="matrix(-1 0 0 1 1536.44 538.5)"/><rect x="1171.5" y="861.5" width="719" height="204" stroke="#70AD47" stroke-width="4.58333" stroke-miterlimit="8" fill="#FFFFFF"/><text font-family="Calibri,Calibri_MSFontService,sans-serif" font-weight="400" font-size="83" transform="matrix(1 0 0 1 1444.59 990)">JSON</text><rect x="2249.5" y="861.5" width="641" height="204" stroke="#70AD47" stroke-width="4.58333" stroke-miterlimit="8" fill="#FFFFFF"/><text font-family="Calibri,Calibri_MSFontService,sans-serif" font-weight="400" font-size="83" transform="matrix(1 0 0 1 2474.71 990)">AVRO</text><rect x="3187.5" y="1209.5" width="718" height="287" stroke="#AE5A21" stroke-width="4.58333" stroke-miterlimit="8" fill="#ED7D31"/><text fill="#FFFFFF" font-family="Calibri,Calibri_MSFontService,sans-serif" font-weight="400" font-size="83" transform="matrix(1 0 0 1 3374.65 1380)">Consumer</text><rect x="287.5" y="251.5" width="641" height="287" stroke="#AE5A21" stroke-width="4.58333" stroke-miterlimit="8" fill="#ED7D31"/><text fill="#FFFFFF" font-family="Calibri,Calibri_MSFontService,sans-serif" font-weight="400" font-size="83" transform="matrix(1 0 0 1 495.181 422)">Device</text><path d="M928.5 385.188 1125.36 385.188 1125.36 405.813 928.5 405.813ZM1115.05 364.563 1176.93 395.501 1115.05 426.438Z"/><path d="M0-10.3125 824.741-10.3125 824.741 604.311 804.116 604.311 804.116 0 814.429 10.3125 0 10.3125ZM845.366 593.998 814.429 655.873 783.491 593.998Z" transform="matrix(-1.83697e-16 -1 -1 1.83697e-16 3546.37 1209.93)"/><path d="M3187.88 1364.03 1521.19 1364.03 1521.19 1117.06 1541.81 1117.06 1541.81 1353.72 1531.5 1343.41 3187.88 1343.41ZM1500.56 1127.38 1531.5 1065.5 1562.44 1127.38Z"/><path d="M3187.06 1364.03 2559.19 1364.03 2559.19 1117.06 2579.81 1117.06 2579.81 1353.72 2569.5 1343.41 3187.06 1343.41ZM2538.56 1127.38 2569.5 1065.5 2600.44 1127.38Z"/><rect x="3187.5" y="1696.5" width="718" height="288" stroke="#787878" stroke-width="4.58333" stroke-miterlimit="8" fill="#A5A5A5"/><text fill="#FFFFFF" font-family="Calibri,Calibri_MSFontService,sans-serif" font-weight="400" font-size="83" transform="matrix(1 0 0 1 3492.82 1867)">PostgreSQL</text><path d="M3556.81 1496.5 3556.81 1644.69 3536.19 1644.69 3536.19 1496.5ZM3577.44 1634.37 3546.5 1696.25 3515.56 1634.37Z"/><g clip-path="url(#clip1)"><g clip-path="url(#clip2)"><g clip-path="url(#clip3)"><path d="M8.09806 0.0338232 198.809 0.0338232C200.5 0.0338232 202.712-0.226355 204.143 0.68427 205.314 1.46481 205.183 2.63561 205.183 3.80642L205.183 45.1748C205.183 46.3456 205.053 47.5164 204.143 48.297 203.102 49.3377 201.931 49.3377 200.5 49.3377L182.158 49.3377C180.597 49.3377 179.035 49.2076 177.995 48.0368 177.084 46.9961 177.084 45.5651 177.084 44.2642L177.084 28.003 28.7823 28.003 28.7823 44.6545C28.7823 45.9554 28.6522 47.2563 27.7416 48.297 26.7008 49.3377 25.3999 49.3377 24.0991 49.3377L4.84583 49.3377C3.54494 49.3377 2.24404 49.3377 1.20333 48.297 0.162612 47.2563 0.162612 46.0855 0.0325223 44.6545L0.0325223 7.18874C0.0325223 5.75776-0.097567 4.19668 0.162612 2.7657 0.42279 1.46481 1.59359 0.424091 2.89449 0.163913 4.71574-0.0962661 6.4069 0.0338232 8.09806 0.0338232Z" fill="#F2F2F2" transform="matrix(1 0 0 1.00388 2329.57 288.227)"/><path d="M47.6452 48.9487 72.8826 48.9487C74.4436 48.9487 76.2649 49.0788 77.3056 50.3797 78.2162 51.4204 78.2162 52.7213 78.2162 54.0222L78.2162 72.7551C78.2162 74.1861 78.2162 75.487 77.1755 76.6578 76.1348 77.6985 74.7038 77.6985 73.2728 77.6985L50.247 77.6985C48.5559 77.6985 46.7346 77.8286 45.1735 77.4383 43.6125 76.7878 42.962 75.3569 42.962 73.6657L42.962 54.0222C42.962 52.5912 42.962 51.2903 43.8726 50.2496 44.9134 49.0788 46.3443 48.9487 47.6452 48.9487ZM97.3394 71.3241 123.097 71.3241C124.398 71.3241 125.569 71.3241 126.609 72.2347 127.65 73.1453 127.78 74.3162 127.78 75.617L127.78 94.8703C127.78 96.4313 127.26 97.7322 125.829 98.5128 124.268 99.1632 122.186 98.903 120.495 98.903L97.8597 98.903C96.4287 98.903 95.1278 98.903 94.0871 97.8623 93.0464 96.8216 93.0464 95.3906 93.0464 94.0897L93.0464 76.2675C93.0464 74.8365 93.1765 73.5356 94.2172 72.4949 94.9978 71.4542 96.0385 71.4542 97.3394 71.3241ZM50.3771 92.1384 73.4029 92.1384C74.7038 92.1384 75.8746 92.2685 76.7852 93.1791 77.826 94.2198 77.826 95.6508 77.826 96.9517L77.826 115.294C77.826 116.595 77.6959 117.636 76.7852 118.547 75.7445 119.587 74.4436 119.587 73.0127 119.587L47.7753 119.587C46.4744 119.587 45.3036 119.587 44.2629 118.677 43.2222 117.766 43.0921 116.595 42.962 115.294L42.962 96.9517C42.962 95.5207 42.962 94.0897 44.1328 93.049 45.5638 91.7481 48.4258 92.2685 50.3771 92.1384ZM146.513 92.1384 172.661 92.1384C173.962 92.1384 175.133 92.2685 176.043 93.1791 177.214 94.2198 177.084 95.6508 177.084 97.0818L177.084 115.424C177.084 116.725 176.954 117.896 175.913 118.807 174.873 119.847 173.572 119.847 172.141 119.847L149.895 119.847C148.074 119.847 146.123 119.978 144.432 119.587 142.871 118.937 142.22 117.506 142.22 115.945L142.22 97.2119C142.22 95.7809 142.22 94.6101 143.261 93.4393 144.172 92.3986 145.342 92.1384 146.513 92.1384ZM97.3394 113.473 123.097 113.473C124.398 113.473 125.569 113.473 126.609 114.384 127.65 115.294 127.78 116.595 127.78 117.896L127.78 137.149C127.78 138.58 127.26 139.751 126.089 140.532 124.528 141.312 122.317 141.052 120.495 141.052L97.8597 141.052C96.4287 141.052 95.1278 141.052 94.0871 140.011 93.0464 138.971 93.0464 137.67 92.9163 136.239L92.9163 118.416C92.9163 116.985 92.9163 115.554 93.957 114.644 94.8677 113.603 96.0385 113.603 97.3394 113.473ZM50.3771 134.287 73.533 134.287C74.8339 134.287 76.0047 134.417 76.9153 135.458 77.826 136.499 77.826 137.67 77.826 138.971L77.826 157.313C77.826 158.614 77.826 159.785 76.9153 160.826 76.0047 161.866 74.7038 161.996 73.4029 161.996L47.6452 161.996C46.2142 161.996 44.7833 161.996 43.8726 160.695 42.962 159.525 42.962 158.224 42.962 156.793L42.962 138.45C42.962 136.759 43.6125 135.328 45.1735 134.678 46.7346 134.157 48.6859 134.417 50.3771 134.287ZM5.49628 162.387 24.2291 162.387C25.6601 162.387 27.0911 162.517 28.1318 163.688 29.0425 164.728 28.9124 165.899 29.0425 167.2L29.0425 183.721 177.865 183.721 177.865 167.59C177.865 166.289 177.865 164.988 178.905 163.948 180.076 162.777 181.377 162.777 182.938 162.777L200.37 162.777C201.671 162.777 203.232 162.777 204.273 163.557 205.444 164.468 205.964 166.029 205.964 167.46L205.964 207.137C205.964 208.568 205.834 209.739 204.793 210.65 203.492 211.951 201.151 211.43 199.46 211.56L5.2361 211.56C4.06529 211.56 3.02458 211.43 2.24404 210.65 1.20333 209.739 1.07324 208.438 1.07324 207.137L1.07324 167.07C1.07324 165.509 1.33342 164.078 2.50422 163.037 3.15467 162.387 4.32547 162.517 5.49628 162.387Z" fill="#F2F2F2" transform="matrix(1 0 0 1.00388 2329.57 288.227)"/></g></g></g><g clip-path="url(#clip4)"><g clip-path="url(#clip5)"><g clip-path="url(#clip6)"><path d="M65.8056 31.4027C65.8056 20.3959 74.6377 11.5358 85.6112 11.5358 96.5848 11.5358 105.417 20.3959 105.417 31.4027 105.417 42.4095 96.5848 51.2696 85.6112 51.2696 74.6377 51.2696 65.8056 42.4095 65.8056 31.4027ZM107.333 95.4936C107.333 82.3555 117.875 71.7805 130.972 71.7805 144.07 71.7805 154.611 82.358 154.611 95.4936 154.611 108.629 144.07 119.207 130.972 119.207 117.875 119.207 107.333 108.632 107.333 95.4936ZM152.056 165.991C152.056 155.695 160.318 147.405 170.584 147.405 180.849 147.405 189.111 155.695 189.111 165.991 189.111 176.288 180.849 184.578 170.584 184.578 160.318 184.578 152.056 176.288 152.056 165.991ZM81.139 153.175C81.139 144.3 88.2639 137.152 97.1113 137.152 105.959 137.152 113.083 144.297 113.083 153.175 113.083 162.053 105.961 169.198 97.1113 169.198 88.2613 169.198 81.139 162.053 81.139 153.175Z" fill="#FFFFFF" fill-rule="evenodd" transform="matrix(1 0 0 1.00212 1206.28 289.281)"/><path d="M16.6111 104.466C16.6111 95.5907 23.736 88.4428 32.5834 88.4428 41.4307 88.4428 48.5556 95.5881 48.5556 104.466 48.5556 113.344 41.4333 120.49 32.5834 120.49 23.7335 120.49 16.6111 113.344 16.6111 104.466ZM89.0715 27.5924 134.264 92.0845 125.902 97.9801 80.7097 33.4906Z" fill="#FFFFFF" fill-rule="evenodd" transform="matrix(1 0 0 1.00212 1206.28 289.281)"/><path d="M134.911 92.1126 174.902 162.196 166.03 167.289 126.04 97.2058Z" fill="#FFFFFF" fill-rule="evenodd" transform="matrix(1 0 0 1.00212 1206.28 289.281)"/><path d="M129.498 89.9787 130.344 100.198 32.9258 108.312 32.0799 98.0926Z" fill="#FFFFFF" fill-rule="evenodd" transform="matrix(1 0 0 1.00212 1206.28 289.281)"/><path d="M125.925 92.547 134.681 97.8396 100.387 154.928 91.6321 149.636ZM201.25 0 149.5 0C147.584 0 146.306 1.28034 146.306 3.84612L146.306 22.4327C146.306 24.3545 147.584 25.6374 149.5 25.6374L178.889 25.6374 178.889 54.4769C178.889 56.3986 180.167 57.6815 182.722 57.6815L201.25 57.6815C203.167 57.6815 204.445 56.4012 204.445 54.4769L204.445 3.20467C204.445 1.28034 203.167 0 201.25 0ZM3.19445 204.447 54.9445 204.447C56.8612 204.447 58.139 203.164 58.139 200.601L58.139 182.015C58.139 180.093 56.8612 178.81 54.9445 178.81L25.5556 178.81 25.5556 149.97C25.5556 148.046 24.2778 146.766 21.7223 146.766L3.19445 146.766C1.27778 146.766 0 148.046 0 149.97L0 201.243C0 203.164 1.27778 204.447 3.19445 204.447Z" fill="#FFFFFF" fill-rule="evenodd" transform="matrix(1 0 0 1.00212 1206.28 289.281)"/></g></g></g><g clip-path="url(#clip7)"><g clip-path="url(#clip8)"><g clip-path="url(#clip9)"><path d="M179.891 180.46C181.468 167.324 180.996 165.398 190.78 167.526L193.264 167.744C200.787 168.086 210.629 166.534 216.411 163.848 228.857 158.073 236.237 148.43 223.965 150.964 195.97 156.739 194.045 147.26 194.045 147.26 223.606 103.399 235.964 47.7222 225.297 34.0937 196.204-3.08015 145.846 14.4985 145.003 14.9549L144.735 15.0044C139.203 13.8568 133.013 13.1711 126.059 13.0586 113.39 12.8505 103.778 16.3798 96.4859 21.9106 96.4859 21.9106 6.64842-15.1013 10.8278 68.4567 11.7167 86.2319 36.3067 202.959 65.6348 167.702 76.3541 154.809 86.7133 143.909 86.7133 143.909 91.8573 147.326 98.0159 149.069 104.475 148.443L104.974 148.017C104.818 149.618 104.887 151.184 105.174 153.037 97.6202 161.479 99.8398 162.961 84.7347 166.07 69.4525 169.22 78.4308 174.828 84.2911 176.293 91.3975 178.07 107.837 180.588 118.949 165.037L118.506 166.811C121.47 169.182 121.27 183.853 121.69 194.335 122.111 204.818 122.812 214.6 124.949 220.367 127.086 226.134 129.607 240.989 149.459 236.734 166.05 233.179 178.735 228.062 179.891 180.46" stroke="#000000" stroke-width="20.8137" transform="matrix(1.00214 0 0 1 3218 1716.05)"/><path d="M223.967 150.963C195.97 156.738 194.045 147.259 194.045 147.259 223.606 103.395 235.964 47.7172 225.299 34.0903 196.207-3.08126 145.846 14.4985 145.005 14.9549L144.735 15.0033C139.203 13.8551 133.013 13.1711 126.056 13.0575 113.387 12.8499 103.778 16.3787 96.4859 21.9083 96.4859 21.9083 6.64675-15.1018 10.825 68.4556 11.7139 86.2319 36.3033 202.959 65.6326 167.702 76.3525 154.809 86.71 143.909 86.71 143.909 91.8545 147.326 98.0131 149.069 104.47 148.443L104.971 148.017C104.815 149.618 104.886 151.184 105.172 153.037 97.6163 161.479 99.8365 162.961 84.7324 166.07 69.4491 169.22 78.4274 174.828 84.2894 176.293 91.3959 178.07 107.837 180.588 118.946 165.037L118.503 166.811C121.463 169.182 123.542 182.235 123.194 194.067 122.845 205.899 122.613 214.022 124.945 220.367 127.278 226.713 129.603 240.989 149.458 236.734 166.05 233.179 174.647 223.965 175.843 208.596 176.692 197.67 178.613 199.285 178.734 189.516L180.275 184.892C182.051 170.08 180.557 165.302 190.779 167.525L193.263 167.743C200.786 168.085 210.633 166.533 216.412 163.847 228.856 158.072 236.236 148.429 223.966 150.963Z" fill="#336791" transform="matrix(1.00214 0 0 1 3218 1716.05)"/><path d="M120.148 159.453C119.377 187.013 120.342 214.765 123.038 221.51 125.737 228.254 131.511 241.373 151.369 237.119 167.958 233.562 173.994 226.68 176.614 211.488 178.543 200.31 182.262 169.268 182.739 162.908" stroke="#FFFFFF" stroke-width="6.9379" stroke-linecap="round" stroke-linejoin="round" fill="none" transform="matrix(1.00214 0 0 1 3218 1716.05)"/><path d="M96.3473 21.2928C96.3473 21.2928 6.44694-15.4508 10.6263 68.1067 11.5152 85.8829 36.1063 202.613 65.435 167.355 76.1527 154.461 85.8456 144.348 85.8456 144.348" stroke="#FFFFFF" stroke-width="6.9379" stroke-linecap="round" stroke-linejoin="round" fill="none" transform="matrix(1.00214 0 0 1 3218 1716.05)"/><path d="M144.907 14.5865C141.795 15.5621 194.915-4.83228 225.103 33.7425 235.767 47.3699 223.41 103.048 193.849 146.913" stroke="#FFFFFF" stroke-width="6.9379" stroke-linecap="round" stroke-linejoin="round" fill="none" transform="matrix(1.00214 0 0 1 3218 1716.05)"/><path d="M193.849 146.913C193.849 146.913 195.775 156.395 223.773 150.616 236.04 148.082 228.658 157.725 216.216 163.503 206.006 168.242 183.114 169.457 182.74 162.908 181.778 146.013 194.788 151.146 193.849 146.913 193.001 143.1 187.182 139.358 183.333 130.027 179.973 121.882 137.25 59.4245 195.181 68.7005 197.304 68.2614 180.072 13.5974 125.857 12.7085 71.6538 11.8197 73.4321 79.3664 73.4321 79.3664" stroke="#FFFFFF" stroke-width="6.9379" stroke-linecap="round" stroke-linejoin="bevel" fill="none" transform="matrix(1.00214 0 0 1 3218 1716.05)"/><path d="M104.974 152.69C97.4176 161.132 99.64 162.614 84.5348 165.724 69.2515 168.874 78.2309 174.481 84.0912 175.946 91.1977 177.724 107.639 180.241 118.748 164.687 122.131 159.951 118.728 152.394 114.081 150.467 111.835 149.537 108.833 148.372 104.974 152.69Z" stroke="#FFFFFF" stroke-width="6.9379" stroke-linecap="round" stroke-linejoin="round" fill="none" transform="matrix(1.00214 0 0 1 3218 1716.05)"/><path d="M104.48 152.543C103.718 147.58 106.11 141.674 108.674 134.765 112.527 124.398 121.416 114.029 114.305 81.1436 109.005 56.6376 73.4538 76.0436 73.4315 79.3664 73.4098 82.6881 75.0395 96.2087 72.8376 111.953 69.9645 132.499 85.9107 149.875 104.273 148.097" stroke="#FFFFFF" stroke-width="6.9379" stroke-linecap="round" stroke-linejoin="round" fill="none" transform="matrix(1.00214 0 0 1 3218 1716.05)"/><path d="M96.0206 78.8682C95.8603 80.0031 98.0983 83.0315 101.016 83.4361 103.93 83.8424 106.423 81.4758 106.581 80.3421 106.739 79.2072 104.504 77.9571 101.585 77.5508 98.6699 77.1439 96.1753 77.7361 96.0211 78.8682Z" stroke="#FFFFFF" stroke-width="2.31262" fill="#FFFFFF" transform="matrix(1.00214 0 0 1 3218 1716.05)"/><path d="M184.754 76.5545C184.912 77.6894 182.677 80.7178 179.758 81.1224 176.842 81.5287 174.349 79.1621 174.189 78.0284 174.035 76.8935 176.271 75.6434 179.187 75.2371 182.103 74.8308 184.596 75.4224 184.754 76.5551Z" stroke="#FFFFFF" stroke-width="1.15631" fill="#FFFFFF" transform="matrix(1.00214 0 0 1 3218 1716.05)"/><path d="M195.181 68.7005C195.662 77.6026 193.264 83.666 192.962 93.1424 192.514 106.917 199.529 122.683 188.959 138.468" stroke="#FFFFFF" stroke-width="6.9379" stroke-linecap="round" stroke-linejoin="round" fill="none" transform="matrix(1.00214 0 0 1 3218 1716.05)"/><path d="" stroke="#FFFFFF" stroke-width="1.66976" stroke-linecap="round" stroke-linejoin="round" fill="none" transform="matrix(1.00214 0 0 1 3218 1716.05)"/></g></g></g><g clip-path="url(#clip10)"><g clip-path="url(#clip11)"><g clip-path="url(#clip12)"><path d="M691.361 901.402 1009.64 901.402 1009.64 901.402 1009.64 1078.89C1009.64 1084.78 1004.86 1089.56 998.967 1089.56L702.033 1089.56C696.139 1089.56 691.361 1084.78 691.361 1078.89L691.361 901.402 691.361 901.402Z" fill="url(#fill13)"/><path d="M702.033 833.627 998.967 833.627C1004.86 833.627 1009.64 838.405 1009.64 844.299L1009.64 901.402 1009.64 901.402 691.361 901.402 691.361 901.402 691.361 844.112C691.463 838.291 696.211 833.626 702.033 833.627Z" fill="#37C2B1"/><path d="M734.609 921.996 966.203 921.996C968.922 922.097 971.073 924.331 971.071 927.051L971.071 953.262C971.073 955.983 968.922 958.216 966.203 958.317L734.609 958.317C731.891 958.216 729.74 955.983 729.742 953.262L729.742 927.051C729.74 924.331 731.891 922.097 734.609 921.996Z" fill="#FFFFFF"/><path d="M734.797 974.231 966.39 974.231C969.109 974.332 971.26 976.566 971.258 979.286L971.258 1005.68C971.26 1008.4 969.109 1010.64 966.39 1010.74L734.797 1010.74C732.078 1010.64 729.927 1008.4 729.929 1005.68L729.929 980.222C729.411 977.479 731.216 974.835 733.959 974.318 734.235 974.266 734.516 974.237 734.797 974.231Z" fill="#37C2B1"/><path d="M734.797 1027.03 966.39 1027.03C969.109 1027.13 971.26 1029.36 971.258 1032.08L971.258 1058.48C971.26 1061.2 969.109 1063.44 966.39 1063.54L734.797 1063.54C732.078 1063.44 729.927 1061.2 729.929 1058.48L729.929 1032.08C729.927 1029.36 732.078 1027.13 734.797 1027.03Z" fill="#258277"/></g></g></g></g></svg>